<?xml version="1.0" encoding="utf-8"?>
<!-- Generator: Adobe Illustrator 21.0.0, SVG Export Plug-In . SVG Version: 6.00 Build 0)  -->
<svg version="1.1" id="Layer_1" xmlns="http://www.w3.org/2000/svg" xmlns:xlink="http://www.w3.org/1999/xlink" x="0px" y="0px"
	 viewBox="0 0 350 97.8" style="enable-background:new 0 0 350 97.8;" xml:space="preserve">
<style type="text/css">
	.st0{fill:#438AC9;}
	.st1{fill:#FFFFFF;}
</style>
<g>
	<g id="XMLID_1803_">
		<g id="XMLID_1804_">
			<path id="XMLID_1805_" class="st0" d="M57,82.7c-9.2,0-17.8-3.6-24.2-10c-6.5-6.5-10-15.1-10-24.2s3.6-17.8,10-24.2
				c6.5-6.5,15.1-10,24.2-10c9.2,0,17.8,3.6,24.2,10c6.5,6.5,10,15.1,10,24.2s-3.6,17.8-10,24.2C74.8,79.1,66.2,82.7,57,82.7z"/>
		</g>
		<g>
			<polygon class="st1" points="49.3,32.1 49.3,64.5 51.2,64.5 51.2,49 53.4,49 53.4,47.1 51.2,47.1 51.2,34 62.8,34 62.8,62.7 
				64.7,62.7 64.7,32.1 			"/>
			<g>
				<rect x="57" y="62.7" class="st1" width="5.9" height="1.9"/>
			</g>
		</g>
	</g>
	<g id="XMLID_351_">
		<path id="XMLID_1801_" class="st0" d="M114.8,39.3h13.7l-1,3.6h-9.8l-1,3.8h8.6l-1,3.6h-8.6l-1.9,7h-4L114.8,39.3z"/>
		<path id="XMLID_1799_" class="st0" d="M134.9,51.5c0-0.9,0.2-1.9,0.4-2.9l2.5-9.4h4l-2.6,9.7c-0.2,0.6-0.3,1.2-0.3,2
			c0,1.8,1.1,3,3.1,3c1.2,0,2.2-0.4,2.9-1.1c0.8-0.8,1.4-1.9,1.8-3.4l2.7-10.2h4L150.5,50c-0.6,2.3-1.5,4.1-2.8,5.4
			c-1.5,1.5-3.5,2.2-6.1,2.2C137.4,57.6,134.9,55.4,134.9,51.5z"/>
		<path id="XMLID_1797_" class="st0" d="M166.7,42.9h-5.5l1-3.7h15l-1,3.7h-5.5l-3.9,14.4h-4L166.7,42.9z"/>
		<path id="XMLID_1795_" class="st0" d="M182.9,51.5c0-0.9,0.2-1.9,0.4-2.9l2.5-9.4h4l-2.6,9.7c-0.2,0.6-0.3,1.2-0.3,2
			c0,1.8,1.1,3,3.1,3c1.2,0,2.2-0.4,2.9-1.1c0.8-0.8,1.4-1.9,1.8-3.4l2.7-10.2h4L198.6,50c-0.6,2.3-1.5,4.1-2.8,5.4
			c-1.5,1.5-3.5,2.2-6.1,2.2C185.5,57.6,182.9,55.4,182.9,51.5z"/>
		<path id="XMLID_1611_" class="st0" d="M215.7,51.5h-3l-1.5,5.8h-4l4.9-18.1h6.6c2.7,0,4.5,0.6,5.7,1.8c0.9,0.9,1.4,2.2,1.4,3.6
			c0,1.7-0.6,3.2-1.7,4.3c-0.7,0.7-1.9,1.7-4.2,2.2l3.1,6.2h-4.5L215.7,51.5z M217.2,48c1.5,0,2.9-0.4,3.6-1.2
			c0.5-0.5,0.7-1.1,0.7-1.8c0-0.6-0.2-1.1-0.6-1.4c-0.5-0.5-1.4-0.7-2.6-0.7h-3.3l-1.4,5.2H217.2z"/>
		<path id="XMLID_1608_" class="st0" d="M237.2,39.3h13.5l-1,3.5h-9.5l-1,3.7h8.4l-1,3.5h-8.4l-1,3.8h9.7l-1,3.5h-13.6L237.2,39.3z"
			/>
		<path id="XMLID_801_" class="st0" d="M263.4,39.3h2v16.2h10.2v1.9h-12.2V39.3z"/>
		<path id="XMLID_504_" class="st0" d="M292.9,39.1h1.9l8.2,18.2h-2.2l-2.1-4.8h-9.8l-2.1,4.8h-2.1L292.9,39.1z M297.9,50.7
			l-4.1-9.2l-4.1,9.2H297.9z"/>
		<path id="XMLID_352_" class="st0" d="M312.7,39.3h7.7c2.1,0,3.7,0.6,4.7,1.6c0.7,0.8,1.2,1.7,1.2,2.9v0.1c0,2.3-1.4,3.6-2.9,4.2
			c2.1,0.6,3.9,1.9,3.9,4.4v0.1c0,3.1-2.6,4.9-6.6,4.9h-8V39.3z M324.2,44c0-1.8-1.4-2.9-4-2.9h-5.5v6.2h5.3
			C322.5,47.3,324.2,46.2,324.2,44L324.2,44z M320.4,49.1h-5.7v6.4h6.1c2.7,0,4.4-1.2,4.4-3.2v-0.1
			C325.2,50.3,323.6,49.1,320.4,49.1z"/>
	</g>
</g>
</svg>
